<svg xmlns="http://www.w3.org/2000/svg" viewBox="0 0 32 32" enable-background="new 0 0 64 64" id="3d-Glasses-Alternate--Streamline-Emojitwo" height="32" width="32">
  <desc>
    3d Glasses Alternate Streamline Emoji: https://streamlinehq.com
  </desc>
  <title>sunglasses, blue circle, red circle</title>
  <g fill="#222526">
    <path d="M1.8 16.3C3.8 9.6 5.95 6.5 6.85 6.5c0.5 0 0.65 0.35 0.85 1.1 0.45 1.85 0.05 2.45 -0.25 2.7 -0.35 0.35 -0.9 0.05 -0.9 -1.9 -0.45 1.15 -2.65 5.2 -3.8 9.5l-0.95 -1.6" stroke-width="0.5"></path>
    <path d="M30.2 16.3C28.2 9.6 26.05 6.5 25.15 6.5c-0.5 0 -0.65 0.35 -0.85 1.1 -0.45 1.85 -0.05 2.45 0.25 2.7 0.35 0.35 0.9 0.05 0.9 -1.9 0.45 1.15 2.65 5.2 3.8 9.5l0.95 -1.6" stroke-width="0.5"></path>
  </g>
  <path d="M18.05 16.65c-1.2 0.6 -2.95 0.6 -4.1 0 -1.25 -0.65 -2.8 -1.1 -4.65 -1.25 -1.8 -0.15 -5.6 -0.15 -7.5 0.55 -0.2 0.1 -0.45 0.2 -0.65 0.3 -0.1 0.05 -0.15 0.05 -0.15 0.3v0.3c0 0.55 -0.05 0.35 0.3 0.55 0.75 0.45 1.2 1.6 1.4 3.2 0.3 2.3 1.45 3.75 3.25 4.45 1.65 0.65 3.55 0.6 5.2 -0.05 0.9 -0.35 1.7 -0.95 2.35 -1.9 1.1 -1.65 0.8 -2.7 1.35 -4.15 0.5 -1.25 1.9 -1.25 2.4 0 0.55 1.45 0.25 2.45 1.35 4.15 0.65 0.95 1.45 1.55 2.35 1.9 1.65 0.7 3.5 0.7 5.2 0.05 1.8 -0.7 2.9 -2.15 3.25 -4.45 0.2 -1.6 0.65 -2.75 1.4 -3.2 0.4 -0.25 0.3 0 0.3 -0.55v-0.3c0 -0.2 0 -0.25 -0.15 -0.35 -0.2 -0.1 -0.4 -0.2 -0.65 -0.3 -1.9 -0.7 -5.7 -0.7 -7.5 -0.55 -1.95 0.2 -3.5 0.65 -4.75 1.3" fill="#363b3d" stroke-width="0.5"></path>
  <path fill="#66caf2" d="M13.1 17.55c-0.4 -0.3 -1.2 -0.55 -2.1 -0.7 -0.5 -0.1 -1.1 -0.15 -1.7 -0.2 -1.35 -0.1 -2.8 -0.1 -3.75 0.1 -0.6 0.1 -1.05 0.25 -1.2 0.45 -0.7 0.8 -0.55 3.05 0.15 4.65 0.2 0.4 0.45 0.8 0.7 1.1 0.45 0.5 1.05 0.8 1.75 1 0.45 0.15 0.9 0.2 1.4 0.25 0.8 0.05 1.6 -0.05 2.35 -0.25 0.15 -0.05 0.25 -0.1 0.35 -0.15 2.15 -0.95 2.7 -4.55 2.35 -5.85 -0.05 -0.15 -0.15 -0.3 -0.3 -0.4" stroke-width="0.5"></path>
  <path fill="#ff5a79" d="M27.85 17.25c-0.05 -0.05 -0.05 -0.1 -0.1 -0.15 -0.3 -0.4 -1.75 -0.55 -3.35 -0.55 -0.6 0 -1.2 0.05 -1.8 0.1 -0.65 0.05 -1.3 0.15 -1.85 0.25 -1.1 0.25 -1.9 0.6 -2 1.05 -0.2 0.8 -0.1 2.4 0.5 3.8 0.25 0.55 0.55 1.1 1 1.5 0.35 0.35 0.75 0.6 1.25 0.7 0.1 0 0.15 0.05 0.25 0.05 1.5 0.35 3.25 0.25 4.5 -0.5 0.25 -0.15 0.5 -0.35 0.75 -0.55 1.15 -1.3 1.6 -4.5 0.85 -5.7" stroke-width="0.5"></path>
</svg>